<?xml version="1.0" encoding="UTF-8"?>
<svg version="1.1" viewBox="0 0 2048 917" width="1114" height="499" xmlns="http://www.w3.org/2000/svg">
<path transform="translate(0)" d="m0 0h2048v917h-2048z" fill="#FBFCFC"/>
<path transform="translate(0)" d="m0 0h2048v110l-1955 1h-93z"/>
<path transform="translate(1282,643)" d="m0 0 17 2 17 5 19 9 12 9 2 1 11-24h3l7 18 8 27 6 28 2 22v21l-3 17-7 19-8 14-7 9-9 10-13 10-14 8-15 6-19 4h-23l-20-4-19-8-16-10-13-12-11-14-9-17-6-18-2-12v-25l4-19 8-19 10-15 11-12 10-9 13-8 13-6 16-5 7-1z" fill="#93C253"/>
<path transform="translate(611,808)" d="m0 0h308l13 2 9 5 8 6 7 12 2 9v10l-5 14-8 10-7 5-8 3-6 1h-316l-13-4-9-7-6-7v-3h-2l-3-10v-15l3-10 6-8 7-7 9-4z" fill="#FAFCFD"/>
<path transform="translate(157,808)" d="m0 0h310l13 4 5 2v2l5 2 7 9 5 13v13l-3 8-3 7h-2l-2 5-5 4h-2v2l-11 5-5 1h-312l-10-2-6-3-9-7-6-9-4-12v-10l3-12 8-11 8-6 3-2z" fill="#2467EF"/>
<path transform="translate(1360,672)" d="m0 0h2l7 23 5 25 2 21v11l-2 16-5 16-5 10-8 10-11 8-12 5-14 3-13 1h-63v-2l35-11 18-8 13-9 10-9 8-8 10-14 7-12 6-16-10 17-9 11-12 12-14 10-16 9-19 7-26 7-14 3-7-1-8-8-5-12-1-4v-16l5-16 7-11 8-8 14-8 13-4 18-2 21-2 17-4 16-8 11-8 10-9 10-13z" fill="#FCFDFD"/>
<path transform="translate(923,258)" d="m0 0h17l5 5v6h-2v2l-8 3h-9l-12 2-11 3h-3v2l-10 4-6 2v2h-3v2l-6 3-1 2-3 1-4 5-6 4-3 5-6 6-1 3-3 3-1 3h-2l-2 7-4 7-3 10-2 4-2 13-1 2v28l3 14 5 16 8 16 8 11 4 6 7 6 1 2 1-40h-20l-4-1v-13h65v13l-5 1h-19l1 54h2v2l10 3 19 6 14 1-8-4-7-7-4-11v-15l3-10 6-8 9-5 4-1h14l10 4 5 4 5 8 2 6v17l-4 11-5 6-10 5-3 1 81-1h42l-6 15-34 1h-45l-11 1h-48l-19-3-15-5-14-6-3-2-7-1-2-6-11-9-12-12-1-4-3-1v-3h-2l-1-3-5-5-1-6h-2l-4-8-6-18-3-13-1-8v-25l3-21 6-18 7-14 10-14 11-12 10-10 13-9 16-8 16-6z" fill="#2CC6A8"/>
<path transform="translate(1436,448)" d="m0 0h20l3 2 3 8 2 1h6l4-2 5 1 14 14-2 5-1 7 5 5 5 2 1 1v22l-9 4-2 3 1 7 2 5-15 15-6-1-7-1-5 5-2 5h-24l-4-9-2-1h-6l-3 2-6-1-7-8-6-6 2-5v-9l-2-2-8-3v-23l9-4 2-4-1-6-2-5 16-16 7 3 7-1 2-2 3-7z" fill="#FCFCFC"/>
<path transform="translate(1943,268)" d="m0 0h17l10 3 11 6 10 10 6 10 4 14v13l-4 13-7 11-10 10-14 7-12 2-16-2-10-4-9-7-7-7-8-14-2-7v-16l4-13 7-11 11-11 10-5z" fill="#D4EBE5"/>
<path transform="translate(0,111)" d="m0 0h89v10l-4 18-5 12-7 13-9 11-8 8-13 9-14 7-17 5-12 1z" fill="#FDD8C7"/>
<path transform="translate(1939,218)" d="m0 0h25l21 5 12 5 11 6 10 8 7 6 9 11 7 11 7 14v64l-10 19-8 11-9 10-11 9-14 8-12 5-18 4-7 1h-8l-6-4v-8l5-2 23-4 15-5 12-7 12-11 7-7 8-13 5-12 3-10 1-7v-16l-3-16-5-14-6-10-9-10-8-8-14-9-11-5-11-3-7-1h-22l-16 4-17 8-12 9-8 8-10 14-5 12-4 15-2 15-5 5-7-1-2-2v-13l4-21 6-16 10-15 16-16 15-10 16-7z" fill="#FBE8D0"/>
<path transform="translate(1518,655)" d="m0 0h18l5 12 8 5h7l8-1 8 13 1 4-5 5-3 4v13l8 8-2 5-6 11h-17l-5 5-1 6h3v-6l2 1-1 6-3 1-3-2v-3h-2l-1 6-2 3h-17l-3-7-2 1-1-7-7-4h-9l-9 3-3 2 2-4 1-4-6-10 1-4 6-7v-13l-7-9 1-5 5-8-1-8 1-2h2v6h7l6 2 10-6h2l-2-4 3-1z" fill="#69D7E5"/>
<path transform="translate(1614,749)" d="m0 0h19l2 9 5 5 6 3v2l8-1 6-2 3 5v2h2l4 8-1 5-5 6h-2l1 14 7 7v6l-5 6-3 5-15-1v2l-8 4-3 4-2 8h-6l-5-2-2 2h-5l-4-9v-2l-3-1-4-4-5-2-13 1-4-5-4-8 1-4 3-5h3v-15l-7-9-1-2 2-6 3-3 3-5h16l8-4 3-10h2z" fill="#FDDD7B"/>
<path transform="translate(935,26)" d="m0 0h80l8 2 3 7v39l-2 7-3 3h-89l-5-5v-47l4-5z" fill="#151515"/>
<path transform="translate(1521,636)" d="m0 0h17l15 4 9 4v2l6 2v2h3l4 4 5 4 2 4 4 4 8 15 2 6 7 1 4 4-7 9-4 6-3 1-5-4-5-6-2-1 1-5 7 1-5-16-1-4-3-1-7-11-6-4-1-2-17-8-10-2h-17l-14 2-13 6-1 2h-3l-1 3-6 4-3 5-2 1-1 3h-2l-3 9-2 5-3 9v20l6 18 7 11 6 7 6 4 4 4 12 5 7 2h25l1-2h6l14-7 18-14 15-9 18-5h13l16 3 10 5 5 2v2l6 2 9 9 7 8 8 16 3 11v19l-3 14-4 8-2 5h-2l-2 6-3 3-7 8-5 3-1 2-5 1v2l-13 6-12 3h-20l-15-4-16-9-3-3-7-6-2-4-2-1-2-6-3-1-3-8-3-6-3-8-2 2-4-1-1-5 8-13 5 1 5 3 6 7-1 4-4 1-3-2 5 17 6 11 5 5 3 2v2l3 1 4 4 14 6 8 2h25l12-4 11-6h2v-2l8-7 7-10 4-8 3-11v-24l-3-12-1-5h-2l-1-5h-2v-3l-3-1-1-4-3-1-1-2-5-3-9-6-15-5-5-1h-16l-9 1-8 3h-3l-1 3-7 3-1 2h-3l-2 4-6 3-1 2h-3v2h-3v2h-3v2h-3v2l-11 5-12 3h-17l-16-4-14-6v-2h-2l-3-4-5-3-4-6-3-2v-3h-2v-3h-2v-3h-2l-4-11-4-13v-19l5-17 6-11 9-11 9-7h2l1-3 15-7z" fill="#26CDBC"/>
<path transform="translate(1907,400)" d="m0 0 7 1 2 2 1 107v52l-2 12-6 12-10 10-14 8-9 2h-9l-14-4-11-7-7-7-6-10-4-13v-8l3-12 5-10 9-10 10-6 10-3h13l4 5-1 6-5 3-12 3-8 4-8 9-3 8v12l4 9 5 7 8 5 7 2h10l11-4 8-7 4-7 1-4 1-45 1-119z" fill="#CEDDEE"/>
<path transform="translate(83,523)" d="m0 0h22l4 10 12 36 3 13 7-26 11-32 1-1h24l1 1v80h-17v-59l-8 26-11 31-1 2h-14l-7-18-11-33-2-8v30l-1 29h-16v-80z" fill="#1C1D22"/>
<path transform="translate(1553,443)" d="m0 0h16l10 4 9 8 5 10 2 11-1 12-4 11-7 8-8 5-5 2h-18l-9-4-8-7-5-8-2-5-1-6v-12l3-10 6-9 7-6z" fill="#02043D"/>
<path transform="translate(1943,284)" d="m0 0h18l12 6 8 9 4 11v14l-5 12-7 8-10 5-7 2h-12l-10-4-10-9-6-12-1-11 3-12 8-11 9-6z" fill="#FDFEFE"/>
<path transform="translate(613,414)" d="m0 0h17v27l7-6 4-2h12l8 4 6 7 4 11v18l-4 11-6 7-8 4-9 1-8-4-5-4-1-2-1 8h-16z" fill="#1D1D22"/>
<path transform="translate(581,414)" d="m0 0h16v79l-1 1h-15l-1-8-5 5-6 4-7 1-11-4-6-5-5-10-1-5v-16l3-10 4-6 8-6 3-1h12l7 4 4 5z" fill="#1C1C21"/>
<path transform="translate(344,413)" d="m0 0h15l11 4 8 6 6 9 1 8h-16l-5-8-6-3h-12l-6 3-6 8-2 7v13l3 10 6 7 4 2 9 1 8-2 5-4 3-9-17-1v-12l33-1 1 1v10l-2 12-4 8-8 8-9 4-4 1h-15l-10-3-9-6-7-9-4-12-1-14 2-12 6-12 4-5 11-7z" fill="#1D1D23"/>
<path transform="translate(1939,218)" d="m0 0h25l21 5 12 5 11 6 15 12v2l-5-1-5-3-9-4 5 8 1 5h2v3l-4-2-10-8-15-8-14-4-7-1h-22l-16 4-17 8-12 9-8 8-10 14-5 12-4 15-2 15-5 5-7-1-2-2v-13l4-21 6-16 10-15 16-16 15-10 16-7z" fill="#FBE8D0"/>
<path transform="translate(421,433)" d="m0 0h15l9 4 7 6 5 11 1 5v10l-3 10-5 8-6 5-9 3h-13l-9-3-8-7-5-10-1-4v-14l4-11 7-8 7-4z" fill="#1D1C21"/>
<path transform="translate(934,433)" d="m0 0h14l10 4 5 4 5 8 2 6v17l-4 11-5 6-10 5-3 1h-14l-10-4-8-8-4-11v-15l3-10 6-8 9-5z" fill="#1D1D21"/>
<path transform="translate(491,433)" d="m0 0h14l10 4 6 5 5 10 1 4v16l-4 11-5 6-9 5-4 1h-14l-10-4-7-7-4-8-1-4v-16l4-11 4-5 10-6z" fill="#1D1C21"/>
<path transform="translate(197,25)" d="m0 0h10l11 4 7 6 5 8 2 7v10l-3 10-7 8-5 4-11 4h-10l-10-4-8-7-5-8-2-7v-9l4-11 7-8 7-5z" fill="#F9FBFB"/>
<path transform="translate(1829,28)" d="m0 0h42l6 5v44l-4 5-7 1h-34l-6-2-3-4v-44z" fill="#F2F4F6"/>
<path transform="translate(101,413)" d="m0 0h17l12 5 6 7 3 6v6h-16l-2-5-3-3-4-1h-9l-5 2-2 2v8l6 4 21 6 9 6 4 5 2 4v13l-3 6-8 7-11 4h-17l-10-3-8-6-4-6-2-10 1-1h15l5 8 5 3h12l6-3 2-4-1-6-5-3-23-7-8-5-5-6-1-2v-14l5-8 6-5z" fill="#1D1C21"/>
<path transform="translate(885,480)" d="m0 0 1 2h2v2l10 3 19 6 16 1 12 1 84-1h42l-6 15-34 1h-45l-11 1h-48l-19-3-15-5-14-6-3-3h9z" fill="#2BC6A7"/>
<path transform="translate(122,324)" d="m0 0h9l3 2 3 15 4 6 12 5 15 5 4 4-1 7-7 7-14 7-11 3h-8l-13-4-11-7-6-7-3-8v-11l4-9 6-8 8-5z" fill="#69D8E5"/>
<path transform="translate(200,543)" d="m0 0h18l10 4 4 5 3 7v45h-15l-1-7-7 6-5 2h-12l-8-5-4-5-1-3v-11l4-7 7-4 22-4 3-2-1-6-2-2-7-1-7 3-3 4-12-2-2-1 1-5 6-7z" fill="#1D1C21"/>
<path transform="translate(408,543)" d="m0 0h19l10 5 4 5 2 4v47h-15l-1-7-7 6-4 2h-12l-8-4-5-6-1-3v-10l3-6 6-5 11-3 16-3-1-7-2-2-7-1-7 3-4 4-13-3 1-4 5-7z" fill="#1D1C21"/>
<path transform="translate(171,433)" d="m0 0h15l9 3 6 5 3 6v47h-15l-1-7-5 5-10 4-8-1-8-4-5-6-1-3v-9l3-7 7-5 11-3 13-2 2-1-1-7-3-2h-9l-5 4-1 2-13-2-2-1 2-5 6-7z" fill="#1D1C21"/>
<path transform="translate(769,433)" d="m0 0h14l10 4 5 5 4 6 3 12v8h-41l2 8 5 5 3 1h7l6-3 2-3 9 1 5 1-1 5-7 8-10 4h-15l-10-4-6-5-6-12-1-13 3-12 6-9 7-5z" fill="#1D1D22"/>
<path transform="translate(1340,467)" d="m0 0h9l6 4h2l1-3h11l1 33-1 18-4 10-6 5-4 2h-13l-7-3-6-5-3-6v-4h12l5 6 6 1 5-2 2-3 1-11-9 5-7 1-9-5-6-9-1-3v-15l4-8 7-6z" fill="#93C253"/>
<path transform="translate(1436,448)" d="m0 0h20l3 2 3 8 2 1h6l4-2 5 1 14 14-2 5-1 7 5 5 5 2 1 1v22l-9 4-2 3 1 7 2 5-15 15-6-1-7-1-5 5-2 5h-24l-4-9-2-1h-6l-3 2-6-1-7-8-6-6 2-5v-9l-2-2-8-3v-23l9-4 2-4-1-6-2-5 16-16 7 3 7-1 2-2 3-7zm3 7-2 5-6 5h-15l-8 7 1 5v9l-4 6-7 4v13l8 5 3 6v8l-1 4 8 9 8-2 6 1 6 4 3 6h14l4-7 5-3h11 4l8-8-1-3v-10l3-5 7-5v-13l-8-5-2-5v-10-4l-8-8-10 2-7-3-4-4-2-4z" fill="#BF08EA"/>
<path transform="translate(137,706)" d="m0 0 5 1 5-1 3 2 1 13h-3l-1-12h-4v12l4 1v88l2 1-6 2-6 4-5 5-4 5-2 2-1-1v-106l7-2v-13z" fill="#FCE7C1"/>
<path transform="translate(678,434)" d="m0 0h18l12 38 1 5 12-36 3-7h17l-9 25-15 40-5 10-8 7-3 1h-16l-2-1 2-9 2-4 6 1 5-2 2-8-21-57z" fill="#1D1D22"/>
<path transform="translate(214,434)" d="m0 0h17l10 30 3 12 1 1 6-20 8-23h17l-3 10-15 40-8 20-6 9-7 4h-17l-1-5 3-8 10-1 3-5-1-8-7-19-13-35z" fill="#1D1D22"/>
<path transform="translate(322,543)" d="m0 0h16l1 40 2 5 4 2h8l4-1 3-10 1-36h15l1 1v44l-1 16h-14l-1-1v-8l-5 5-8 5h-11l-8-4-6-9-1-4z" fill="#1D1D22"/>
<path transform="translate(1621,467)" d="m0 0h10l6 3 7 8 2 6v13l-4 9-7 6-4 2h-10l-6-4-1 26-2 1-11-1v-68h12l2 3z" fill="#03033B"/>
<path transform="translate(251,543)" d="m0 0h15l1 2v8l7-8 4-2h14l6 3 5 6 2 5 1 6v41h-16l-1-39-3-6-4-2h-7l-5 4-2 4-1 39h-16z" fill="#1D1C1F"/>
<path transform="translate(1192,467)" d="m0 0h9l8 5 6 7 2 7v10l-4 9-7 7-7 3-9-2-6-4v27h-12v-68h12v4z" fill="#93C253"/>
<path transform="translate(844,414)" d="m0 0h65v13l-5 1h-19v66h-16l-1-1v-65h-20l-4-1z" fill="#1D1E27"/>
<path transform="translate(1621,772)" d="m0 0 13 3 8 6 4 6 2 7-1 13-3 5h-2l-1 4-7 5-9 2-9-1-6-3-7-6-4-8-1-9 3-10 3-4h2l2-4 10-5z" fill="#FCFBF7"/>
<path transform="translate(1519,679)" d="m0 0h15l8 4 7 8 3 9-1 9-6 11-5 4-7 3h-13l-8-4-7-8-3-9v-7l3-9 6-7z" fill="#F6FAFB"/>
<path transform="translate(125,865)" d="m0 0 4 2 5 7 10 7-4 10-9 11-11 8-9 5h-53l1-5 9-8 12-7 28-6 8-5 4-5 4-11z" fill="#FCE7C0"/>
<path transform="translate(611,808)" d="m0 0h308l13 2 9 5 8 6 7 12 2 9v10l-5 14-8 10-7 5-8 3-6 1h-316l-13-4-9-7-6-7v-3h-2l-3-10v-15l3-10 6-8 7-7 9-4zm-1 2-13 3-4 2v2l-4 2-5 5-7 14v16l4 11h2v3h2l2 5 9 7 11 3h318l9-3 9-6 7-8 5-10v-18l-4-11-8-9-8-5-12-3z" fill="#59BAE7"/>
<path transform="translate(1138,443)" d="m0 0h12l9 4 4 4-6 8-6-4h-8l-4 4 1 7 19 10 5 7 1 3v11l-3 8-8 7-4 2-10 1-9-4-8-7-1-3 7-7 7 6 3 2h6l5-4 1-6-3-5-4-3-12-6-6-7-1-2v-11l3-7 5-5z" fill="#93C253"/>
<path transform="translate(1555,456)" d="m0 0h11l6 3 7 8 2 7v8l-3 9-4 6-7 4h-12l-6-3-4-5-4-9v-11l5-10 7-6z" fill="#FCFDFD"/>
<path transform="translate(460,523)" d="m0 0 16 1v77l-1 3h-15l-1-80z" fill="#1C1E27"/>
<path transform="translate(1298,467)" d="m0 0h10l6 4 3 4 1 3v35h-12l-1-31-2-4h-6l-4 3-1 4-1 28h-9l-3-1v-44h12v4z" fill="#93C253"/>
<path transform="translate(1440,485)" d="m0 0h12l9 6 4 10-1 7-4 7-8 5h-11l-6-3-5-6-2-5v-7l4-8z" fill="#FCFCFC"/>
<path transform="translate(1661,467)" d="m0 0h11l8 4-4 7-2 1-3-2h-5l-1 4 13 7 4 6v9l-4 6-5 4-3 1h-10l-8-4-2-2 1-5 3-3 5 2 2 1h6l1-1v-5l-13-7-3-4v-10l4-6z" fill="#040439"/>
<path transform="translate(1474,559)" d="m0 0 5 1 1 14 4 4h29l4-6 5-3h8l6 3 3 5 1 8-4 7-5 3h-9l-6-4-3-5h-26l-9-3-4-5-2-7v-8z" fill="#C008EA"/>
<path transform="translate(1525,409)" d="m0 0 8 2 5 5 2 6-1 6-6 7-3 1h-8l-6-4-2-6-31 1-3 4-1 13-1 2h-5l-1-3v-10l3-8 4-4 3-1 22-1h9l4-6 4-3z" fill="#C008EA"/>
<path transform="translate(1415,559)" d="m0 0 5 1v15l-4 7-5 3-12 1h-19l-7 8-2 1h-9l-6-4-3-5v-8l4-6 6-3h7l5 3 4 5v2l31-1 2-2 1-10 1-6z" fill="#BF08EA"/>
<path transform="translate(1362,410)" d="m0 0h9l6 4 3 5 31 1 6 4 3 6v15l-1 1h-5l-1-5-1-11-3-3-30-1-2 5-5 4-2 1h-7l-7-4-3-5v-8l4-6z" fill="#BF08EA"/>
<path transform="translate(1443,478)" d="m0 0h7l10 4 5 4 5 9 1 4v8l-4 9-6 7-11 4-11-1-8-4-6-7-3-8v-10l5-10 7-6zm-3 7-8 6-4 8v7l4 8 6 5 3 1h11l8-5 4-7 1-7-4-10-9-6z" fill="#C008EA"/>
<path transform="translate(936,446)" d="m0 0h10l5 4 3 10v8l-3 9-5 5h-10l-5-5-3-9v-8l3-9z" fill="#FBFCFB"/>
<path transform="translate(493,446)" d="m0 0h10l5 5 3 7v11l-3 8-5 5h-10l-5-5-2-5-1-10 2-9 3-5z" fill="#FBFCFC"/>
<path transform="translate(424,446)" d="m0 0h9l5 4 3 7v14l-4 8-4 3h-9l-6-5-2-6v-15l3-6z" fill="#FBFDFD"/>
<path transform="translate(638,446)" d="m0 0h8l6 5 3 8v9l-3 9-6 5h-8l-6-5-3-9v-9l3-8 4-4z" fill="#FBFCFC"/>
<path transform="translate(564,446)" d="m0 0h9l5 5 3 8v10l-3 8-4 4-2 1h-8l-5-4-3-7v-15l3-6z" fill="#FBFCFC"/>
<path transform="translate(1244,466)" d="m0 0 7 1 1 4-1 7-2 1h-7l-5 5-2 28-12 1v-45h12v4l5-3z" fill="#93C253"/>
<path transform="translate(1486,792)" d="m0 0 5 1 1 2v40h39l3 2-1 5-7 1h-19l-23-1v-49z" fill="#FDD8C7"/>
<path transform="translate(1618,660)" d="m0 0h47l1 2v47l-6 1-1-1-1-12v-26l-2-1 1-1-38-1-3-2 1-5z" fill="#FDD8C7"/>
<path transform="translate(1957,219)" d="m0 0h12l19 5 17 8 12 9 6 5v2l-5-1-5-3-9-4 5 8 1 5h2v3l-4-2-10-8-9-5-2-5h2v-3l-23-10h-6z" fill="#FCE7C1"/>
<path transform="translate(1257,468)" d="m0 0h12v45l-12-1z" fill="#93C253"/>
<path transform="translate(1345,478)" d="m0 0h6l6 5 2 9-3 7-5 4h-7l-5-5-2-5 1-8 5-6z" fill="#FAFCFB"/>
<path transform="translate(1192,478)" d="m0 0 6 1 5 5 1 2v7l-3 7-4 3h-6l-6-4-2-4v-9l6-7z" fill="#F8FBFA"/>
<path transform="translate(1621,478)" d="m0 0 6 1 5 5 1 2v9l-4 6-4 2-6-1-5-4-2-9 3-7 3-3z" fill="#FBFCFB"/>
<path transform="translate(374,45)" d="m0 0h8l5 4 1 2v9l-5 5-2 1h-7l-5-4-1-2v-9l4-5z" fill="#F5F8F7"/>
<path transform="translate(0,111)" d="m0 0h89v10h-1v-6h-88z" fill="#FBE9D1"/>
<path transform="translate(1631,787)" d="m0 0 5 1v6l-8 9h-2l-1 4-2 2h-6l-7-8v-2h-2l1-5 5-1 4 5v2h3l2-4 7-8z" fill="#FDDE83"/>
<path transform="translate(352,50)" d="m0 0h12v18l-4 4h-8l-3-2v-2h9l1-3-7 1-3-3-1-2v-7z" fill="#F5F8F7"/>
<path transform="translate(217,576)" d="m0 0h2v9l-4 6-4 2h-10l-4-4 1-7 5-3z" fill="#F9FBFB"/>
<path transform="translate(183,467)" d="m0 0h5v9l-3 5-8 3-7-1-3-3v-6l4-4z" fill="#FAFCFC"/>
<path transform="translate(426,576)" d="m0 0h1v10l-4 5-4 2h-9l-4-3v-7l3-3z" fill="#FAFCFB"/>
<path transform="translate(391,50)" d="m0 0h13l3 3v9l-4 4-7-1v7l-5-1z" fill="#F7F7F5"/>
<path transform="translate(277,702)" d="m0 0h8l5 3 1 2v9l-5 5-8 1-2-1v-18z" fill="#F8FAF8"/>
<path transform="translate(773,445)" d="m0 0h7l5 3 4 6-1 4h-24l1-7 5-5z" fill="#F8FAF8"/>
<path transform="translate(1535,693)" d="m0 0 5 1-1 6-3 3h-2l-2 5-4 2-2 4h-4l-5-5-5-6 2-5 5 2 5 5 9-11z" fill="#296FEE"/>
<path transform="translate(290,50)" d="m0 0h12l3 3v9l-4 4-6-1-1 7h-4z" fill="#F8FAF9"/>
<path transform="translate(683,837)" d="m0 0 7 1 3 4v8l-3 5-10 1-1-1v-17z" fill="#E3F5F8"/>
<path transform="translate(924,809)" d="m0 0 8 1 9 5 8 6 7 12 2 9v10l-5 14-8 10-7 5-8 3h-7l2-2 9-3 9-6 6-7 5-10v-18l-4-11-7-8-8-5-12-3z" fill="#4CA2EA"/>
<path transform="translate(187,56)" d="m0 0h7l4 4v8l-4 4h-8l-4-3-1-6 4-6z" fill="#FAF6EB"/>
<path transform="translate(604,809)" d="m0 0 6 1v1l-13 3-4 1v2l-4 3h-2l-9 18v16l3 9v2h2v3h2l4 6 7 5 7 3-3 1-8-4-10-9-2-3v-3h-2l-3-10v-15l3-10 6-8 7-7 9-4z" fill="#68CEE6"/>
<path transform="translate(1226,815)" d="m0 0h5l5 6-1 7-3 3-5 1-5-3-2-2v-6l4-5z" fill="#F8FBFB"/>
<path transform="translate(298,840)" d="m0 0h8l1 1v15l-4 3h-6l-2-4h7l-6-2-1-2v-8z" fill="#DCF1F6"/>
<path transform="translate(274,45)" d="m0 0h8l4 4v2l-5-1-4-1-2 1v2l9 3 2 2v6l-5 3-9-1-3-4v-2l5 1 1 1h6l1-3-9-2-3-3 1-6z" fill="#F5F7F6"/>
<path transform="translate(1255,46)" d="m0 0 9 1 3 4v7l-5 5h-7l-1-1v-15z" fill="#F3F4F0"/>
<path transform="translate(1548,46)" d="m0 0 5 1 3 3v9l-4 4h-6l-3-4-1-5 3-7z" fill="#D9E7F5"/>
<path transform="translate(1071,46)" d="m0 0h7l4 2 1 2v9l-4 4h-8z" fill="#F0F1EC"/>
<path transform="translate(1355,509)" d="m0 0h2v11l-4 5-8 1-3-2-1-4 2-6 9-3z" fill="#F8FAF9"/>
<path transform="translate(2023,381)" d="m0 0h3l-2 4-11 10-13 8-8 4-4-1 5-5 19-12z" fill="#FCE7C2"/>
<path transform="translate(729,706)" d="m0 0h2v2l6-2 5 5v6l-3 4-7-1-1 8-2-1z" fill="#1B2131"/>
<path transform="translate(330,706)" d="m0 0 5 1 2 3v8l-3 3h-6l-1 7-2-1v-20z" fill="#1D2231"/>
<path transform="translate(396,836)" d="m0 0 3 1v17h-10l-2-3v-9l3-2 6 1z" fill="#E5F1F6"/>
<path transform="translate(1261,442)" d="m0 0 5 1 4 4 1 4-4 5-7 1-4-4-1-4 3-5z" fill="#93C253"/>
<path transform="translate(302,702)" d="m0 0h9l4 4v5l-3 3-7 1-1 7-2-1z" fill="#1D2232"/>
<path transform="translate(566,706)" d="m0 0 5 1 3 5-1 6-3 3-4 1-5-5v-7z" fill="#1A233B"/>
<path transform="translate(1922,234)" d="m0 0m-4 1h4v3l-16 8-11 8-8 8-1 2h-2l1-5 10-11 6-4 5-4 9-3z" fill="#FCE6C2"/>
<path transform="translate(330,50)" d="m0 0h12l3 5v11l-5-1-1-11h-4l-1 12h-4z" fill="#F4F8F7"/>
<path transform="translate(759,706)" d="m0 0 5 1 2 2v9l-2 3-5 1-5-5v-6z" fill="#F7F9F8"/>
<path transform="translate(690,706)" d="m0 0 5 1 3 3v8l-3 3-4 1-5-4-1-5 3-6z" fill="#F8FAF9"/>
<path transform="translate(188,706)" d="m0 0 5 1 3 4v6l-3 4-5 1-4-4v-9z" fill="#F7F9F7"/>
<path transform="translate(635,706)" d="m0 0 6 2 2 7-3 5-5 2-5-5v-6z" fill="#F7FAF9"/>
<path transform="translate(121,706)" d="m0 0 6 2 1 2v8l-3 3h-6l-3-4v-7l2-3z" fill="#F7FAFA"/>
<path transform="translate(1364,416)" d="m0 0 6 1 3 4-1 6-4 3-6-1-3-5 1-5z" fill="#FAF7F6"/>
<path transform="translate(1524,416)" d="m0 0 7 1 2 3v6l-5 4-6-1-2-2v-7z" fill="#FCFAF9"/>
<path transform="translate(1365,575)" d="m0 0 6 2 2 3-1 6-3 3h-6l-3-3-1-5 2-4z" fill="#F9F8F7"/>
<path transform="translate(376,840)" d="m0 0h5l3 3v9l-5 3-5-2-2-3v-6z" fill="#D3EDF3"/>
<path transform="translate(247,840)" d="m0 0h5l3 3v9l-2 2h-7l-3-3v-7z" fill="#D0EBF2"/>
<path transform="translate(1523,576)" d="m0 0h7l3 3v6l-4 4h-6l-3-3v-7z" fill="#FBFAFA"/>
<path transform="translate(413,50)" d="m0 0h8l3 2v2l-9-1 1 2 8 3 1 4-3 3-2 1h-6l-4-3v-2l9 1 1-2-7-1-2-2v-5z" fill="#F2F5F6"/>
<path transform="translate(699,842)" d="m0 0h6l3 2 1 7-5 5-5-1-3-5v-5z" fill="#3581ED"/>
<path transform="translate(830,842)" d="m0 0 7 1 2 3v6l-4 4-6-1-2-2v-8z" fill="#3684EC"/>
<path transform="translate(230,836)" d="m0 0h6l4 3v3l-4-2h-6l-1 7 1 3 4 1 2-2-3-1v-3h7v6l-3 3-6 1-6-6v-8z" fill="#E4F5F7"/>
<path transform="translate(258,838)" d="m0 0h3v2h5v-2l4 1 2 1-1 3h-2l1 9h3l-1 3-5-2-1-3v-8l-4 1v8l2 1-1 3-5-2-1-14z" fill="#CBEEF3"/>
<path transform="translate(80,702)" d="m0 0 4 1 6 17v2l-3-1-2-5-7 1-2 5h-2l3-11z" fill="#1C2C50"/>
<path transform="translate(1436,46)" d="m0 0 2 1v4h5l3 3v6l-3 3h-7l-1-2v-14z" fill="#DBE3E3"/>
<path transform="translate(741,842)" d="m0 0h15l2 2 1 12h-4v-12l-4 2-1 9h-2l-1-10-4-1v12h-3v-13z" fill="#337FED"/>
<path transform="translate(375,49)" d="m0 0h6l3 5-1 6-2 2h-6l-3-4v-6z" fill="#05080E"/>
<path transform="translate(1253,561)" d="m0 0 4 1 2 2v10l-5 3-5-5v-7z" fill="#D8E0EC"/>
<path transform="translate(1847,49)" d="m0 0 7 1 2 3-1 6-3 2-7-1-2-4 1-5z" fill="#10131C"/>
<path transform="translate(364,838)" d="m0 0 4 1 2 1-1 3v8l2 1-1 3-4-1-1-2-1-9h-6v10l-3 1v-13l1-1h8z" fill="#C0EBEF"/>
<path transform="translate(1099,51)" d="m0 0h7l3 2v8l-3 2h-4l-1 4h-2z" fill="#F1F6F3"/>
<path transform="translate(320,836)" d="m0 0h6l3 2v3l-4-2h-4l-1 4 6 1 3 2-1 7-6 2-4-2-2-4h3l1 1h5v-2l-8-4v-5z" fill="#CDEDF3"/>
<path transform="translate(1252,537)" d="m0 0h5l2 3v7l-2 4-4 1-4-5 1-7h2z" fill="#DCE7F2"/>
<path transform="translate(345,706)" d="m0 0 5 1 2 2v5l-7 1-3-1 2 4 4 1 4-3-1 4-1 1h-7l-3-4v-6z" fill="#1D2439"/>
<path transform="translate(277,702)" d="m0 0h8l5 3 1 2v9l-5 5-8 1-2-1v-18zm2 2-1 1v12l2 3 6-1 3-4v-7l-4-4z" fill="#1C253D"/>
<path transform="translate(1425,46)" d="m0 0h3l5 15v2l-3-1v-3h-7l-1 4h-2l2-10z" fill="#F4F8F6"/>
<path transform="translate(949,46)" d="m0 0h2v8h7v-7h3v16l-3-1v-6h-7v7l-3-1v-15z" fill="#E4EAEC"/>
<path transform="translate(683,837)" d="m0 0 7 1 3 4v8l-3 5-10 1-1-1v-17zm-1 3-1 1v12l5 1 5-4v-7l-3-3z" fill="#3684EC"/>
<path transform="translate(388,706)" d="m0 0 5 1 2 2v5h-10l2 4 3 1 5-3-1 4-1 1h-7l-3-4v-6z" fill="#1B202F"/>
<path transform="translate(158,706)" d="m0 0 5 1 2 3v11h-10l-1-6 7-3h2l-2-3-6 1 1-3z" fill="#1C202D"/>
<path transform="translate(529,706)" d="m0 0 6 1 2 3v4h-10l2 4 3 1 5-3-1 4-2 1h-6l-3-3v-8z" fill="#1C2337"/>
<path transform="translate(1687,537)" d="m0 0 5 1 3 5-2 7-1 1h-5l-2-3v-8z" fill="#D9E3EF"/>
<path transform="translate(1285,51)" d="m0 0h5l3 3v6l-3 3h-5l-3-3v-6z" fill="#0C0E15"/>
<path transform="translate(464,706)" d="m0 0 5 1 2 3v9l-1 2h-9l-1-7 8-2-1-3-6 1 1-3z" fill="#1D2438"/>
<path transform="translate(1120,51)" d="m0 0h5l3 4-1 6-2 2h-5l-3-3v-6z" fill="#F6F5F1"/>
<path transform="translate(1658,832)" d="m0 0 5 1 2 8-4 4h-2v2l-3 1-1-2v-10l2-2z" fill="#EFF5F5"/>
<path transform="translate(481,706)" d="m0 0 4 2 5-2 3 2 1 13h-3l-1-12-4 1-1 12h-2l-1-13h-4l-1 13h-2v-15z" fill="#1D2232"/>
<path transform="translate(449,706)" d="m0 0 5 1 2 2v5l-6 1-4-1 2 4 4 1 4-3-1 4-1 1h-7l-3-5 1-6z" fill="#1B253E"/>
<path transform="translate(967,51)" d="m0 0 5 1 2 2v6l-3 3h-5l-3-4 1-6z" fill="#F4F2EE"/>
<path transform="translate(343,840)" d="m0 0h5l3 2 1 3v8l-6 2-5-1-1-1v-6h6l-1 2h-2v2h6l-1-7-7 1 1-4z" fill="#CCEFF4"/>
<path transform="translate(137,706)" d="m0 0 5 1 5-1 3 2 1 13h-3l-1-12h-4l-1 12h-2l-1-12-5-1v13l-3-1 1-13z" fill="#1D1D22"/>
<path transform="translate(1451,51)" d="m0 0h5l3 4-1 6-2 2h-5l-3-3 1-7z" fill="#F1F3F1"/>
<path transform="translate(1272,51)" d="m0 0 7 1 1 2v6l-3 3h-5l-2-2v-8z" fill="#F2F5F2"/>
<path transform="translate(609,706)" d="m0 0 3 3 2 7 3-9h3l2 9 4-10 2 2-4 13h-3l-2-9-2 3-2 6h-3l-3-12z" fill="#1C2439"/>
<path transform="translate(1281,562)" d="m0 0h5l2 3v7h-2l-1 4h-4l-2-3v-8z" fill="#EDF2F1"/>
<path transform="translate(1718,51)" d="m0 0h5l3 3v6l-3 3h-5l-2-2v-8z" fill="#F3F9F8"/>
<path transform="translate(187,56)" d="m0 0h7l2 3-9 3-2 1v5l2 1h7l2-1-2 4h-8l-4-3-1-6 4-6z" fill="#93C253"/>
<path transform="translate(1253,635)" d="m0 0 5 2 1 1v6h5v1l-16 3 2-9z" fill="#EDF3EF"/>
<path transform="translate(718,706)" d="m0 0 1 3-4 12-2 1-3-10-3 9-4-1-2-8v-5l2 1 1 10h2l1-7 2-4h2l3 10 3-10z" fill="#1C202E"/>
<path transform="translate(924,809)" d="m0 0 8 1 9 5 8 6 7 12 1 7-1 13h-1l-1-15-4-11-7-8-8-5-12-3z" fill="#479DEA"/>
<path transform="translate(1308,51)" d="m0 0h14l2 3v9h-2l-1-10h-4v9h-3v-9h-4v10h-2z" fill="#E0E9F1"/>
<path transform="translate(725,842)" d="m0 0h3l1 10 5 1v-11l3 1v13h-9l-2-2-1-5z" fill="#4E9FEB"/>
<path transform="translate(282,840)" d="m0 0h7l3 3v11h-3v-11h-5v11h-3v-13z" fill="#C3EBEF"/>
<path transform="translate(1341,611)" d="m0 0 4 1 1 1v9l-3 2h-3v-2l-3-1v-6z" fill="#ECF0F0"/>
<path transform="translate(1074,48)" d="m0 0 5 1 2 2v8l-2 2h-5l-1-1v-11z" fill="#08090B"/>
<path transform="translate(1546,49)" d="m0 0h6l2 3v6l-3 3-5-1-1-2v-7z" fill="#07080C"/>
<path transform="translate(1584,51)" d="m0 0h9l3 8 4-8 1 4-3 7h-3l-3-6v-3l-5 1-1 8h-3v-10z" fill="#E3ECEC"/>
<path transform="translate(978,51)" d="m0 0h13l2 4v8h-2l-1-2v-8h-4v10h-2l-1-9-4-1v9l-2 1v-11z" fill="#E0E7EE"/>
<path transform="translate(776,842)" d="m0 0h9l2 3v10h-3l-1-10-4-1v12h-3z" fill="#3D90EB"/>
<path transform="translate(1142,51)" d="m0 0h14l2 3v9h-2l-1-10-3 1-1 9h-2l-1-9h-3l-1 9h-2z" fill="#EBEEED"/>
<path transform="translate(1258,48)" d="m0 0 5 1 2 4-1 6-2 2h-5v-12z" fill="#090B11"/>
<path transform="translate(227,702)" d="m0 0h6l4 4-1 2-4-3h-5l-3 5 2 7 4 2 5-3 2-1-2 5-2 1h-7l-4-4-1-7 2-5z" fill="#1C2235"/>
<path transform="translate(309,50)" d="m0 0h10v3l-5 2-1 11h-4z" fill="#F9FAF8"/>
<path transform="translate(1943,228)" d="m0 0h11l4 3h-18v2l-10 2h-6l2-2 10-3z" fill="#FDE7C0"/>
<path transform="translate(1705,46)" d="m0 0 6 1 2 2v3l-4-2h-5l-1 7 2 3 5-1 3-2-1 4-2 2h-6l-4-4v-8z" fill="#DDE7F3"/>
<path transform="translate(329,708)" d="m0 0 5 1 1 1v7l-3 3-5-2v-8z" fill="#F8F9F8"/>
<path transform="translate(262,702)" d="m0 0h6l4 4-1 2-4-3h-5l-2 2v9l4 3 5-2 3-2-2 5-2 1h-7l-4-5v-9z" fill="#1B1A1D"/>
<path transform="translate(734,708)" d="m0 0 5 1 1 2v6l-3 3-5-2-1-5 1-4z" fill="#F7FAF9"/>
<path transform="translate(843,842)" d="m0 0h9l1 2v11h-2l-1-10-5-1v12h-3v-13z" fill="#48A2EA"/>
<path transform="translate(1611,51)" d="m0 0h6l2 2v4h-8l1 3h5l2-1-2 4h-6l-2-3v-6z" fill="#EFF4F1"/>
<path transform="translate(322,50)" d="m0 0h4v16l-5-1v-14z" fill="#E9F1F8"/>
<path transform="translate(566,708)" d="m0 0 5 2 1 5-2 4-4 1-3-4v-5z" fill="#F5F9F9"/>
<path transform="translate(516,706)" d="m0 0 5 2 1 13h-3l-1-12-5-1-1 14-2-1v-14z" fill="#1F376D"/>
<path transform="translate(656,702)" d="m0 0h2l1 10 5-5 3 1-4 4 1 4 3 4-1 2-5-6-2-1-1 7h-2z" fill="#1D1F29"/>
<path transform="translate(1751,51)" d="m0 0h5l2 2v10h-7l-2-2v-4l6-2-2-2-3 1z" fill="#BABFC0"/>
<path transform="translate(1573,51)" d="m0 0 7 1 1 5h-8l1 3h6l-1 3h-6l-2-2v-8z" fill="#BDC6C6"/>
<path transform="translate(789,706)" d="m0 0 6 1 2 3v4l-7 1-2-2 6-1-1-3h-4l-1 2v8l6-1 2-2-1 4-5 2-5-4v-8z" fill="#1A1D29"/>
<path transform="translate(374,706)" d="m0 0 5 2 1 13h-3l-1-12-5-1-1 14-2-1v-14z" fill="#1D2334"/>
<path transform="translate(1926,274)" d="m0 0 3 1-10 10-5 6h-2l-2 5-2 1 1-5 6-8 9-9z" fill="#CFE0EC"/>
<path transform="translate(1163,51)" d="m0 0h5l2 2v4h-7l1 3 6-1-2 4h-5l-3-4 1-6z" fill="#F0F5F1"/>
<path transform="translate(1088,51)" d="m0 0 7 1 1 5h-8l1 3h6v2l-6 1-3-2-1-5z" fill="#F6F7F4"/>
<path transform="translate(764,842)" d="m0 0h6l3 3v5l-2-1-2-4-4-1v8h7v3l-7 1-4-5 1-7z" fill="#3481ED"/>
<path transform="translate(789,708)" d="m0 0 5 1 1 3-5 2h7l-1 4-6 2-3-3v-6z" fill="#F5F6F4"/>
<path transform="translate(121,706)" d="m0 0 6 2 1 2v8l-3 3h-6l-3-4v-7l2-3zm0 2-3 3v6l5 3 3-2v-8z" fill="#1C2234"/>
<path transform="translate(690,706)" d="m0 0 5 1 3 3v8l-3 3-4 1-5-4-1-5 3-6zm0 2-3 4 1 5 3 3 4-2 1-1v-6l-3-3z" fill="#1C2235"/>
<path transform="translate(759,706)" d="m0 0 5 1 2 2v9l-2 3-5 1-5-5v-6zm0 2-3 3v6l3 3 5-2 1-6-3-4z" fill="#1D2334"/>
<path transform="translate(1139,662)" d="m0 0 5 1 1 1v9h-7v-9z" fill="#F2F0EB"/>
<path transform="translate(801,842)" d="m0 0h6l2 2 1 11-9 1-3-4 1-3h2l1 4h5l-1-8-6 1z" fill="#307AED"/>
<path transform="translate(547,706)" d="m0 0h2l3 9v3h2l1-5 3-7 1 4-6 15-2 2-3-1 3-1-1-7z" fill="#1B2132"/>
<path transform="translate(635,706)" d="m0 0 6 2 2 7-3 5-5 2-5-5v-6zm0 2-3 3v6l3 3 5-2 1-6-4-4z" fill="#1C2336"/>
<path transform="translate(188,706)" d="m0 0 5 1 3 4v6l-3 4-5 1-4-4v-9zm0 2-3 4 1 6 2 2 4-1 2-2v-6l-3-3z" fill="#1D2335"/>
<path transform="translate(304,704)" d="m0 0h7l2 2-1 5-3 2-5-1z" fill="#F6F8F6"/>
<path transform="translate(209,55)" d="m0 0 4 2 1 5-4 3-5-1v-7z" fill="#CEDEED"/>
<path transform="translate(577,706)" d="m0 0h2l1 13h6v-12l2-1v15h-9l-2-4z" fill="#1C1B1E"/>
<path transform="translate(93,706)" d="m0 0h2l1 12 3 1 2-1 1-11h2v14h-9l-2-3z" fill="#1D1C1F"/>
<path transform="translate(330,50)" d="m0 0 6 1-1 3-1 12h-4z" fill="#FCFBFA"/>
<path transform="translate(714,842)" d="m0 0h6l1 4h-7l-1 6h6l3-1-2 4-5 1-4-4v-7z" fill="#327DED"/>
<path transform="translate(804,706)" d="m0 0 5 1 1 3-6-1v3l6 2-1 7-5 1-4-3 1-2 5 2h2v-4l-6-1-2-4z" fill="#1C253C"/>
<path transform="translate(1600,316)" d="m0 0 5 1v9l-5 1-2-4v-5z" fill="#E7E2D7"/>
<path transform="translate(205,706)" d="m0 0 5 2 1 5v8l-2 1-1-11-1-2-5-1v13h-3v-14z" fill="#1E315C"/>
<path transform="translate(417,706)" d="m0 0 5 1 1 4-3-2-4 1 1 2 6 2 1 4-2 3h-7l-2-4 7 2 1-3-7-3v-5z" fill="#1B2744"/>
<path transform="translate(1730,51)" d="m0 0h7l2 3v9l-3-1v-9l-4 1-1 9h-2v-11z" fill="#EAEEE8"/>
<path transform="translate(332,838)" d="m0 0h4v2h2v3h-2l1 8 1 4-5-2z" fill="#F0F9FA"/>
<path transform="translate(799,844)" d="m0 0h3l5 1v8l-5 1-1-5h-2z" fill="#B9E3F1"/>
<path transform="translate(765,844)" d="m0 0 5 1 3 5-1 3h-7l-1-1v-6z" fill="#D9F1F5"/>
<path transform="translate(714,845)" d="m0 0 8 1v5l-3 2-6-1v-6z" fill="#E6F4F7"/>
<path transform="translate(295,53)" d="m0 0h5l1 1v7l-2 2-4-1-1-1v-7z" fill="#0A0C14"/>
<path transform="translate(791,839)" d="m0 0 4 2 1 3h-2l1 8 2 4h-4l-2-3-1-12z" fill="#3786EC"/>
<path transform="translate(1370,538)" d="m0 0 4 2v9l-4 1-2-2v-8z" fill="#FDFEFE"/>
<path transform="translate(1295,51)" d="m0 0h3v10l4-1 1-9h2v11l-8 1-2-5z" fill="#EDF3F4"/>
<path transform="translate(354,53)" d="m0 0 5 1 1 6-3 3-4-1-1-6z" fill="#090E1A"/>
<path transform="translate(80,702)" d="m0 0 4 1-1 4h-2l-2 7h5v2l-6 1-2 5h-2l3-11z" fill="#1A1F2D"/>
<path transform="translate(365,838)" d="m0 0 5 2-1 3v8l2 1-1 3-4-1-1-2z" fill="#E7F4F8"/>
<path transform="translate(397,53)" d="m0 0h5l1 7-3 3-4-2v-7z" fill="#0A0D15"/>
<path transform="translate(1174,51)" d="m0 0h7l2 2v10h-2l-1-10-4 1-1 9h-2v-11z" fill="#EBEEED"/>
<path transform="translate(1051,614)" d="m0 0h5l1 1v7l-1 1h-5l-1-1v-6z" fill="#F4F0EA"/>
<path transform="translate(1129,51)" d="m0 0 3 2 2 6 3-8h2l-2 9-3 6-4 2 2-4-1-4z" fill="#F1F7F4"/>
<path transform="translate(178,41)" d="m0 0 19 1v4l-18-1z" fill="#F6E4B9"/>
<path transform="translate(775,706)" d="m0 0 5 1 1 3-7-1-1 2v6l4 2 5-2-1 3-6 2-5-5v-6z" fill="#1A1F2E"/>
<path transform="translate(1462,51)" d="m0 0h2l1 9h3l1-9h2v12h-7l-2-2z" fill="#F4F7F6"/>
<path transform="translate(998,51)" d="m0 0 7 1 1 4-5 1 2-1v-3l-5 1v5l5 1h2v2l-7 1-3-4v-5z" fill="#EBF3F3"/>
<path transform="translate(579,862)" d="m0 0 2 1v2h2v3h2l4 6 7 5 7 3-3 1-8-4-10-9-3-6z" fill="#4EA2EA"/>
<path transform="translate(814,839)" d="m0 0 2 1v2l3 1-3 1 1 8 2 3h-5l-2-13z" fill="#3583ED"/>
<path transform="translate(1340,51)" d="m0 0h7l2 2v10h-2l-1-9-4-1v10h-2z" fill="#EEF4F1"/>
<path transform="translate(1329,51)" d="m0 0h5l2 2-1 4-1-4h-5l1 7 6-1-2 4h-5l-3-4 1-6z" fill="#F2F3F0"/>
<path transform="translate(1425,46)" d="m0 0h3l2 6h-2l1 5h-5l-2-4z" fill="#ECF1F4"/>
<path transform="translate(752,842)" d="m0 0 5 1 1 1 1 12h-4v-12l-5 2-2-3z" fill="#4396EB"/>
<path transform="translate(1718,736)" d="m0 0 3 1 1 7-2 4-4-2v-8z" fill="#FDFEFE"/>
<path transform="translate(1628,51)" d="m0 0h2l1 7 2-1 1-6h3l-3 12h-3l-4-9z" fill="#E5E9F1"/>
<path transform="translate(1610,835)" d="m0 0 2 2 3 8h5l4-2 3 2 5 1v1l-17 1-3-4z" fill="#FCE7C4"/>
<path transform="translate(679,838)" d="m0 0h7l-4 1v14l4 2-1 1h-5l-1-1z" fill="#2466EF"/>
<path transform="translate(1311,316)" d="m0 0 4 1 1 6-2 4-4-1-1-6z" fill="#FDFEFE"/>
<path transform="translate(1285,51)" d="m0 0h5l2 4-6-1-1 7 7-2-2 4h-5l-3-3v-6z" fill="#E6F0F2"/>
<path transform="translate(701,844)" d="m0 0 4 1 1 1v5l-2 2h-4l-1-7z" fill="#F1F8FA"/>
<path transform="translate(303,841)" d="m0 0h4v15l-5 2 1-2z" fill="#F2F9FA"/>
<path transform="translate(428,702)" d="m0 0 2 1v3l3 2h-3l1 11 2 2-2 1-3-2-2-13z" fill="#1E2F57"/>
<path transform="translate(1329,53)" d="m0 0h5l1 3 2-3v8h-3l-5-1z" fill="#383F44"/>
<path transform="translate(998,53)" d="m0 0h5v3h3v5h-7l-2-4z" fill="#383E47"/>
<path transform="translate(830,845)" d="m0 0h5l1 1v6l-1 1h-5l-1-7z" fill="#EDF7F9"/>
<path transform="translate(274,836)" d="m0 0h3v18h-3z" fill="#C0EDF2"/>
<path transform="translate(821,838)" d="m0 0h3v17h-3z" fill="#479AEB"/>
<path transform="translate(604,809)" d="m0 0 6 1v1l-13 3-4 1v2l-7 4 2-4 5-4z" fill="#49A3E9"/>
<path transform="translate(1141,712)" d="m0 0 3 1v9h-5l-1-4 1-5z" fill="#FDFEFE"/>
<path transform="translate(1168,636)" d="m0 0h5l2 3v9l-3 2-5-1-1-2v-9zm0 2-1 8 1 3 5-1 1-7-2-3z" fill="#D1E3E3"/>
<path transform="translate(1436,48)" d="m0 0 1 4 2 1-1 8 6-1v-5h2v5l-3 3h-7z" fill="#F5F8F5"/>
<path transform="translate(1224,564)" d="m0 0h3l1 2v6l-1 1h-5v-8z" fill="#ECEFEB"/>
<path transform="translate(1457,317)" d="m0 0 5 1v6l-1 2-5-1v-7z" fill="#FDFEFE"/>
<path transform="translate(1764,51)" d="m0 0h5l1 4-6-1v6l7-1-1 3-6 1-3-3v-7z" fill="#EFF0F0"/>
<path transform="translate(377,842)" d="m0 0 4 2 1 7h-6l-1-7z" fill="#4B99EB"/>
<path transform="translate(230,836)" d="m0 0h6l4 3v3l-4-2h-6l-2 3-1-1-2 2 1-4z" fill="#CFECF1"/>
<path transform="translate(1604,782)" d="m0 0 1 2-3 11-1 1-1 9-2-3 1-11 4-8z" fill="#FBE8C9"/>
<path transform="translate(456,712)" d="m0 0h1v6l-7 2-4-4v-2h10z" fill="#E5EFF2"/>
<path transform="translate(1717,663)" d="m0 0h4l1 7v2l-4 1-2-2v-7z" fill="#FDFEFE"/>
<path transform="translate(1570,539)" d="m0 0 5 1v8l-3 2-2-2z" fill="#FDFEFE"/>
<path transform="translate(1399,316)" d="m0 0 4 1v9h-5l-1-7z" fill="#FDFEFE"/>
<path transform="translate(956,840)" d="m0 0 2 2v10l-4 12h-2l1-7 2-4z" fill="#4095EB"/>
<path transform="translate(327,846)" d="m0 0h2l-1 7-6 2-4-2-2-4h3l1 1 7 1z" fill="#DEF2F6"/>
<path transform="translate(816,844)" d="m0 0h5v10l-4-1-1-1z" fill="#FDFEFE"/>
<path transform="translate(1716,807)" d="m0 0h5l3 3 1 9-3 6h-5l4-2 1-2v-10l-4-2-4 4 1-5z" fill="#DFE6DD"/>
<path transform="translate(170,702)" d="m0 0 1 4h3v2l-2 1v9l2 4-4-2-1-3v-9l-2-1 3-1-1-3z" fill="#1D2539"/>
<path transform="translate(134,708)" d="m0 0h5l1 1v7h-6z" fill="#F4F7F9"/>
<path transform="translate(109,702)" d="m0 0 1 4h3v2h-2l1 11 2 2h-4l-1-1v-12h-2v-2h2z" fill="#1E2E54"/>
<path transform="translate(1081,539)" d="m0 0h4l1 6-1 4h-4l-1-2v-6z" fill="#FDFEFE"/>
<path transform="translate(1558,51)" d="m0 0 3 1 2 6 2-3 2-4 2 1-4 11-3-1z" fill="#F0F5F2"/>
<path transform="translate(1352,48)" d="m0 0h3l2 5h-2v8h2v2l-4-1-1-3z" fill="#E2EEF1"/>
<path transform="translate(248,843)" d="m0 0 4 1 1 7h-6l-1-1v-5z" fill="#4C97EC"/>
<path transform="translate(299,843)" d="m0 0h5v7l-1 1h-5v-7z" fill="#2A70EE"/>
<path transform="translate(701,707)" d="m0 0 2 1 1 10h2l1-7 2-1-1 8-1 3-4-1-2-8z" fill="#1D2742"/>
<path transform="translate(286,704)" d="m0 0 4 1 1 2v9l-5 5h-6l3-2 4-2 1-2v-7z" fill="#1B1E2A"/>
<path transform="translate(1456,315)" d="m0 0 6 1 1 1v9l-3 2-5-1-1-4 1-7zm1 2-1 1v7l5 1 1-2v-6z" fill="#CEDFE2"/>
<path transform="translate(1186,48)" d="m0 0h3l2 5h-2l1 7 1 3-4-1-1-5z" fill="#EDF3F3"/>
<path transform="translate(1139,564)" d="m0 0 5 1v8h-5l-1-3z" fill="#FDFEFE"/>
<path transform="translate(1120,53)" d="m0 0 5 1 1 4-2 3h-4l-1-7z" fill="#0B0D15"/>
<path transform="translate(1101,53)" d="m0 0h5l1 1v6l-5 1-1-1z" fill="#0C0D11"/>
<path transform="translate(340,847)" d="m0 0h6l-1 2h-2v2h4v2l4 1-8 1-3-2z" fill="#CFEFF2"/>
<path transform="translate(391,843)" d="m0 0 5 1-1 7h-5v-7z" fill="#2669EF"/>
<path transform="translate(1572,711)" d="m0 0 4 1 1 8-6-3-4-4z" fill="#DEEEED"/>
<path transform="translate(1082,687)" d="m0 0 3 1v9l-5-1v-7z" fill="#FDFEFE"/>
<path transform="translate(1451,53)" d="m0 0 5 1 1 4-2 3h-4l-1-6z" fill="#0A0B10"/>
<path transform="translate(1273,53)" d="m0 0 5 1v6l-5 1-1-1v-6z" fill="#0A0A0B"/>
<path transform="translate(1848,51)" d="m0 0 4 1 1 5-2 2-4-1-1-5z" fill="#EFF3F8"/>
<path transform="translate(1742,48)" d="m0 0 3 1 1 4-1 1 1 9h-3l-2-10z" fill="#E4EEF5"/>
<path transform="translate(1659,539)" d="m0 0h3l1 7-1 3-4-1v-8z" fill="#FDFEFE"/>
<path transform="translate(1718,514)" d="m0 0 3 1 1 5-2 4-4-2v-6z" fill="#FDFEFE"/>
<path transform="translate(1487,292)" d="m0 0 3 1 1 6-3 3h-2l-1-7z" fill="#FDFEFE"/>
<path transform="translate(1774,48)" d="m0 0 3 1 1 4-1 1v6l2 3h-4l-2-10z" fill="#EEF3F4"/>
<path transform="translate(1457,638)" d="m0 0 4 1 1 7-4 2-2-2v-6z" fill="#FDFEFE"/>
<path transform="translate(933,494)" d="m0 0 22 2v1h-22l-7-1v-1z" fill="#80DBE4"/>
<path transform="translate(1545,48)" d="m0 0 2 1-1 2v9l5 1v2h-5l-3-4-1-5 2-5z" fill="#EFF4F5"/>
<path transform="translate(1719,53)" d="m0 0 5 1v5l-2 2-4-1v-6z" fill="#090A0E"/>
<path transform="translate(233,845)" d="m0 0h7v6l-3 3h-2l1-5-3-1z" fill="#D3EEF2"/>
<path transform="translate(782,842)" d="m0 0 4 1 1 2v10h-3l-1-10-2-2z" fill="#327DED"/>
<path transform="translate(585,820)" d="m0 0 2 2-6 9-2 4h-2l1-6 6-8z" fill="#5BB9E8"/>
<path transform="translate(527,714)" d="m0 0h10l-3 5-3 1-4-3z" fill="#F0F7F5"/>
<path transform="translate(342,714)" d="m0 0h10v3l-4 3-5-2z" fill="#F3F7F5"/>
<path transform="translate(673,702)" d="m0 0 4 1-4 4 3-1v2l-2 1-1 13h-1v-14l-5-1v-1h5z" fill="#1C1F2C"/>
<path transform="translate(1475,48)" d="m0 0h2l2 5h-2l1 7 1 3-4-2-1-12z" fill="#EFF4F1"/>
<path transform="translate(488,706)" d="m0 0 5 2 1 13h-3l-1-12-5 1 1-3z" fill="#1E315D"/>
<path transform="translate(1110,639)" d="m0 0h5v7l-3 2-3-5z" fill="#FDFEFE"/>
<path transform="translate(967,53)" d="m0 0 4 1 1 5-2 2-4-1v-6z" fill="#0B0C10"/>
<path transform="translate(144,706)" d="m0 0 5 1 1 1 1 13h-3l-1-12-5-1z" fill="#1E3059"/>
<path transform="translate(1370,316)" d="m0 0 3 1 1 5-1 4-4-1v-8z" fill="#FDFEFE"/>
<path transform="translate(1940,229)" d="m0 0m-4 1h4v3l-10 2h-6l2-2z" fill="#FCE7C4"/>
<path transform="translate(288,841)" d="m0 0 4 2v11h-3z" fill="#E2EEF4"/>
<path transform="translate(1141,614)" d="m0 0 3 1v7l-4 1-1-1v-7z" fill="#FDFEFE"/>
<path transform="translate(1438,53)" d="m0 0 5 1v6l-5 1z" fill="#090A0F"/>
<path transform="translate(746,707)" d="m0 0h7l-3 2h-2v13h-2z" fill="#1D212F"/>
<path transform="translate(518,707)" d="m0 0 3 1 1 13h-3z" fill="#1F3568"/>
<path transform="translate(376,707)" d="m0 0 3 1 1 13h-3z" fill="#1F3B79"/>
<path transform="translate(1489,649)" d="m0 0m-1 1m-2 1 2 1-14 14v-3l8-9z" fill="#34CDBE"/>
<path transform="translate(1282,540)" d="m0 0 4 1v7l-3 1-2-3v-5z" fill="#FDFEFE"/>
<path transform="translate(1605,46)" d="m0 0 2 1v16h-3v-16z" fill="#CFD8DF"/>
<path transform="translate(664,707)" d="m0 0 3 1-4 4 1 4 3 4-1 2-5-6-2-1 1-4z" fill="#1E2A47"/>
<path transform="translate(1163,51)" d="m0 0h5l2 2v4h-7z" fill="#B3B7BC"/>
<path transform="translate(936,878)" d="m0 0h5l-3 3-8 3h-7l2-2 9-3z" fill="#57ADE9"/>
<path transform="translate(303,850)" d="m0 0h1v6l-1 3h-6l-2-4h7l-2-4z" fill="#AFE3EC"/>
<path transform="translate(626,706)" d="m0 0 2 2-4 13h-3l-1-4h3l2-10z" fill="#1B202F"/>
<path transform="translate(646,707)" d="m0 0h7l-3 2h-2v12h-2z" fill="#1D1E24"/>
<path transform="translate(1429,268)" d="m0 0 3 1v7l-5-1v-5z" fill="#FDFEFE"/>
<path transform="translate(1254,50)" d="m0 0h3v11h3v2h-5l-1-1z" fill="#EBEEE8"/>
<path transform="translate(1088,51)" d="m0 0 7 1 1 5-7-1-2-4z" fill="#8F9CB1"/>
<path transform="translate(1072,50)" d="m0 0h1l1 10 4 2-1 1h-6v-12z" fill="#FAFBFB"/>
<path transform="translate(529,708)" d="m0 0 5 1 1 4h-8l1-4z" fill="#EEF5F1"/>
<path transform="translate(729,706)" d="m0 0h2v2l6-2-3 3h-2v7h-3z" fill="#1F3B7B"/>
<path transform="translate(81,705)" d="m0 0 2 1 2 8h-6z" fill="#F8FAF9"/>
<path transform="translate(1541,738)" d="m0 0 2 1-1 6h3v-6l2 1-1 6-3 1-3-2-1-5z" fill="#C2E1E8"/>
<path transform="translate(789,706)" d="m0 0 6 1 2 3v4l-7 1-2-2 6-1-1-3-4-2z" fill="#1C2D55"/>
<path transform="translate(759,706)" d="m0 0 5 1 2 2v7l-2-4-2-3-4 1-3 1 2-4z" fill="#181920"/>
<path transform="translate(227,702)" d="m0 0h6l4 4-1 2-4-3h-5l-5 3 2-4z" fill="#1A1D28"/>
<path transform="translate(871,296)" d="m0 0 2 1-3 2zm-2 3m-1 1m-1 1m-2 1 2 1-7 7-1-3zm-7 8m-2 1 2 1h-3z" fill="#C8EEEF"/>
<path transform="translate(1700,57)" d="m0 0 5 3 5-1 3-2-1 4-2 2h-6l-4-4z" fill="#EDF3F5"/>
<path transform="translate(1621,51)" d="m0 0 3 1 3 7-1 4h-2l-3-9z" fill="#F2F6F3"/>
<path transform="translate(1619,55)" d="m0 0h1v5l-8 1-1-4h8z" fill="#14151B"/>
<path transform="translate(374,844)" d="m0 0 2 4 1 3 3 1-1 3-5-2-1-2v-6z" fill="#E7F5F9"/>
<path transform="translate(396,839)" d="m0 0 1 3-6 2-1 6h-1l-1-5-1-3 3-2 6 1z" fill="#C1EAEF"/>
<path transform="translate(1580,809)" d="m0 0v3l-1 4 3 5-1 3-4-6-1-5h-2l1-2z" fill="#F8E6C7"/>
<path transform="translate(466,714)" d="m0 0h3l-1 5-4 1-2-1v-4z" fill="#F3F8F6"/>
<path transform="translate(789,708)" d="m0 0 5 1 1 3-7 2-1-3z" fill="#EFF5F1"/>
<path transform="translate(577,706)" d="m0 0h2l1 13 2 1h-4l-1-3z" fill="#1D202C"/>
<path transform="translate(188,706)" d="m0 0m-2 1h2l-2 5 1 6 3 2v2l-5-2-1-2v-9z" fill="#1D263E"/>
<path transform="translate(262,702)" d="m0 0h6l4 4-1 2-4-3h-5l-4 2 2-4z" fill="#1A1B22"/>
<path transform="translate(337,840)" d="m0 0 1 3h-2l1 8 1 4-5-2v-6h1l1-5h2z" fill="#C9E7EE"/>
<path transform="translate(260,844)" d="m0 0h1l1 7 2 1-1 3-5-2v-8z" fill="#C8EAEE"/>
<path transform="translate(734,842)" d="m0 0h2v13h-5l1-2h2z" fill="#2364F0"/>
<path transform="translate(205,706)" d="m0 0 5 2 1 5v8l-2 1-1-11-3-3z" fill="#1C253E"/>
<path transform="translate(449,708)" d="m0 0 4 1 2 3-1 1h-8z" fill="#F5F6F3"/>
<path transform="translate(449,706)" d="m0 0 5 1 2 2v5l-4-5-4 1-1 2h-2l2-5z" fill="#1B1E2A"/>
<path transform="translate(1370,490)" d="m0 0 4 4-1 4-2 1-2-1v-7z" fill="#F5F9F7"/>
<path transform="translate(1170,54)" d="m0 0h1v7h-3l-5-1v-3h7z" fill="#161B2B"/>
<path transform="translate(1088,57)" d="m0 0h8v5l-7-1z" fill="#13151B"/>
<path transform="translate(849,842)" d="m0 0h3l1 2v11h-2l-1-10-2-2z" fill="#276BEF"/>
<path transform="translate(714,842)" d="m0 0h6l1 4h-7l-3 1 1-4z" fill="#3D8AEC"/>
<path transform="translate(247,840)" d="m0 0h5l-1 3-6 2-1 6h-1v-7z" fill="#BCE7F0"/>
<path transform="translate(258,838)" d="m0 0h3l1 5-2 7h-1l-2-11z" fill="#F3F7FA"/>
<path transform="translate(1082,663)" d="m0 0 3 3v6l-4-1v-7z" fill="#FDFEFE"/>
<path transform="translate(1312,635)" d="m0 0h2v14l-4-1h2v-11l-3-1z" fill="#E2E6DD"/>
<path transform="translate(1601,317)" d="m0 0 3 1v7h-4v-7z" fill="#FDFEFE"/>
<path transform="translate(1600,51)" d="m0 0 1 4-3 7h-3l-1-5 3 2z" fill="#F2F7F5"/>
<path transform="translate(1295,51)" d="m0 0h3l1 11h-3l-1-4z" fill="#C4D6EF"/>
<path transform="translate(770,846)" d="m0 0 3 4-1 3h-2v-2h-4v-4z" fill="#8ACDE8"/>
<path transform="translate(245,844)" d="m0 0h1l2 7 3 1v2h-5l-2-2v-7z" fill="#F0F8F9"/>
<path transform="translate(954,832)" d="m0 0 2 1 1 7-1 13h-1l-1-15-1-5z" fill="#83C7E9"/>
<path transform="translate(696,710)" d="m0 0h2v8l-3 3-4 1-1-2 5-3z" fill="#191A21"/>
<path transform="translate(388,708)" d="m0 0 4 1 1 4h-7l1-4z" fill="#EFF6F3"/>
<path transform="translate(345,708)" d="m0 0 4 1 1 4h-7l1-4z" fill="#F3F6F4"/>
<path transform="translate(598,706)" d="m0 0 2 2-5 1v12h-2v-14z" fill="#1E2A4A"/>
<path transform="translate(1053,664)" d="m0 0 3 1v6h-4l-1-5z" fill="#FDFEFE"/>
<path transform="translate(1491,655)" d="m0 0 2 1-2 1zm-1 2m-2 1 2 1-7 7-1-3zm-7 8m-2 1 2 1h-3z" fill="#C7EDEF"/>
<path transform="translate(1573,57)" d="m0 0h8l-1 4h-6z" fill="#13141B"/>
<path transform="translate(959,46)" d="m0 0 2 1v16h-1l-1-9h-1v-7z" fill="#CCE0E2"/>
<path transform="translate(383,843)" d="m0 0h1v9l-4 2v-2l-3-1h5l-1-6z" fill="#BDE5EE"/>
<path transform="translate(421,714)" d="m0 0h2l1 4-2 3h-7l-2-4 7 2z" fill="#161A26"/>
<path transform="translate(161,714)" d="m0 0h2l-1 5h-6l1-4z" fill="#F5F9F7"/>
<path transform="translate(157,713)" d="m0 0h4v2l-4 1-1 3 4 1-5 1-1-6z" fill="#1E2B4B"/>
<path transform="translate(121,706)" d="m0 0 6 2 1 2v6h-2l-1-6-6-1z" fill="#17181F"/>
<path transform="translate(1611,51)" d="m0 0h6l2 3-2 1h-6l-1-3z" fill="#8E959E"/>
<path transform="translate(978,51)" d="m0 0h5l-4 2v9l-2 1v-11z" fill="#EBF5F3"/>
<path transform="translate(348,844)" d="m0 0h1v7h-6v-2l2-1-2-2h5z" fill="#70A3ED"/>
<path transform="translate(1110,540)" d="m0 0 2 2-1 4h3l-1-5h2v7h-5l-1-1z" fill="#DDE2DF"/>
<path transform="translate(1082,512)" d="m0 0h2v15l-2-3-1-11z" fill="#D4E4E0"/>
<path transform="translate(1860,275)" d="m0 0h2l-1 5-3 9h-1l1-9z" fill="#FCE7C5"/>
<path transform="translate(1718,51)" d="m0 0h5l-4 3v7h-3v-8z" fill="#EFF0EB"/>
<path transform="translate(1658,763)" d="m0 0h4l-1 3-5 1-7 2-3-2 9-2z" fill="#F7E7C9"/>
<path transform="translate(436,707)" d="m0 0h7l-3 2h-2l-1 12h-1z" fill="#1D2437"/>
<path transform="translate(1081,51)" d="m0 0h2v8l-4 4-2-1 3-3z" fill="#F6F3EF"/>
<path transform="translate(1425,50)" d="m0 0 3 1 1 6h-5z" fill="#11182A"/>
<path transform="translate(1573,51)" d="m0 0 7 1 1 5h-7v-1h5l-3-3-3 1z" fill="#F2F4F0"/>
<path transform="translate(1730,51)" d="m0 0 3 2-1 1-1 9h-2v-11z" fill="#F9FBF9"/>
</svg>
